<?xml version="1.0" encoding="UTF-8"?>
<svg data-name="Layer 1" version="1.1" viewBox="0 0 779.13 546" xmlns="http://www.w3.org/2000/svg">
<path d="m178.07 499.17c5.0521 17.526 19.804 29.795 35.191 40.217q3.2228 2.1833 6.4477 4.266c0.0146 6e-3 0.0296 0.02 0.0443 0.0265 0.10344 0.0665 0.20708 0.133 0.30345 0.19991 0.44371 0.286 0.88759 0.57222 1.3276 0.855l-0.24171 0.10858s-0.23735 0.12621 0.0223 0.0202c0.0773-0.0323 0.15826-0.0614 0.23538-0.0939 8.9393-3.6054 18.037-7.4764 24.888-14.23 7.1065-7.0136 11.26-18.014 7.4114-27.228a17.593 17.593 0 0 0-1.9048-3.4189c-0.31214-0.44666-0.64831-0.87416-0.99833-1.2937a18.856 18.856 0 0 0-32.386 5.7298c-1.1305-10.526 7.5488-19.343 15.901-25.848 8.3562-6.5023 17.851-13.583 19.467-24.051 0.90215-5.8239-1.123-11.468-4.8122-15.999-0.11422-0.13766-0.22827-0.27514-0.34591-0.409a27.518 27.518 0 0 0-17.687-9.4888c-12.813-1.3317-25.259 5.4506-34.568 14.359-14.982 14.334-24.039 36.35-18.296 56.278z" fill="#f2f2f2"/>
<path d="m202.16 476.25a46.779 46.779 0 0 0-5.6044 12.361 40.619 40.619 0 0 0-1.404 11.997 52.044 52.044 0 0 0 6.8162 23.685 74.903 74.903 0 0 0 11.299 15.099q3.2228 2.1833 6.4477 4.266c0.0146 6e-3 0.0296 0.02 0.0443 0.0265 0.10344 0.0665 0.20708 0.133 0.30345 0.19991 0.44371 0.286 0.88759 0.57222 1.3276 0.855 0 0-0.47906 0.23479-0.21939 0.12882 0.0773-0.0323 0.15826-0.0614 0.23538-0.0939a41.405 41.405 0 0 1 13.249-35.651 41.76 41.76 0 0 1 17.146-9.2264c-0.31214-0.44666-0.64831-0.87416-0.99833-1.2937a43.296 43.296 0 0 0-7.1466 2.7044 42.424 42.424 0 0 0-19.182 18.493 43.374 43.374 0 0 0-4.7225 23.801c-0.36729-0.33284-0.735-0.67291-1.0917-1.0098-6.7929-6.3331-12.826-13.602-16.91-21.992a48.416 48.416 0 0 1-5.0698-22.907c0.33324-8.6533 3.781-16.668 8.7729-23.646a101.35 101.35 0 0 1 19.21-19.798 115.16 115.16 0 0 1 23.892-14.751 0.828 0.828 0 0 0 0.41668-1.0626 0.70418 0.70418 0 0 0-0.34591-0.409 0.613 0.613 0 0 0-0.53242 0.0226c-1.0539 0.48517-2.1005 0.977-3.1387 1.4901a116.46 116.46 0 0 0-24.062 15.873c-7.0828 6.0385-13.751 12.938-18.733 20.838z" fill="#fff"/>
<ellipse transform="rotate(-28.663)" cx="196.38" cy="340.97" rx="29.807" ry="30.775" fill="#2f2e41"/>
<circle cx="335.86" cy="212.9" r="24.561" fill="#ffb8b8"/>
<path d="m322.7 250.47-3.1585 8.934 4.6458 26.889 19.146 15.908 15.204-23.51-7.3206-22.243-5.4904-6.1943a4.0593 4.0593 0 0 0-3.9614-4.4496l-11.991-0.23359a7.3518 7.3518 0 0 0-7.0746 4.8999z" fill="#ccc"/>
<polygon transform="translate(148)" points="237.84 533.7 239.53 486.41 225.57 486.41 225.58 533.7" fill="#ffb8b8"/>
<path d="m409.48 545.08-38.531 3e-3 -1e-3 -14.887 23.644-2e-3a14.887 14.887 0 0 1 14.888 14.886z" fill="#2f2e41"/>
<polygon transform="translate(148)" points="151.95 533.7 157.78 486.41 139.69 486.41 139.69 533.7" fill="#ffb8b8"/>
<path d="m323.6 545.08-38.531 3e-3 -1e-3 -14.887 23.644-2e-3a14.887 14.887 0 0 1 14.888 14.886z" fill="#2f2e41"/>
<path d="m395.49 201.61a10.056 10.056 0 0 1 2.352 15.239l10.14 20.621-11.028 9.2184-13.911-29.322a10.11 10.11 0 0 1 12.447-15.756z" fill="#ffb8b8"/>
<path d="m322.39 363.08a147.81 147.81 0 0 1-17.867-1.3179 7.1433 7.1433 0 0 1-6.0028-8.9522l13.271-49.14-10.688-29.985a13.478 13.478 0 0 1 7.4414-16.926l14.681-6.2065 4.4122 27.313 10.512 13.254a3.418 3.418 0 0 0 5.6628-0.459l7.9827-14.309-6.5205-26.292 9.7217 1.1499a16.877 16.877 0 0 1 13.912 11.235 45.062 45.062 0 0 1 0.74658 26.923l-4.0286 14.312 7.074 45.722a9.3143 9.3143 0 0 1-8.218 10.691 93.625 93.625 0 0 1-13.619 0.56982c-4.1268-0.17578-7.0252-2.6924-8.382-7.2773a1.2757 1.2757 0 0 0-2.4567-0.0127q-0.56342 1.9973-1.2395 4.4482c-1.0929 3.9663-7.9373 5.2593-16.396 5.2593z" fill="#4f8f81"/>
<path d="m365.05 274.38a9.215 9.215 0 0 1-3.552-0.70166 8.7363 8.7363 0 0 1-5.2185-6.3379 10.569 10.569 0 0 1 5.448-11.347l28.647-15.554-1.5669-6.1953a4.9782 4.9782 0 0 1 1.925-5.1333l7.3867-5.4873a4.7364 4.7364 0 0 1 3.9995-0.84473 4.1842 4.1842 0 0 1 2.7795 2.3042l3.8376 8.2856c3.0364 6.5552 0.44043 14.629-6.0386 18.779l-32.13 20.582a10.257 10.257 0 0 1-5.5176 1.6499z" fill="#4f8f81"/>
<path d="m304.7 511.71q-0.14959 0-0.30078-0.01l-15.609-0.627a4.5 4.5 0 0 1-4.1956-4.9566l15.842-152.41 41.576-15.119 24.484 13.855 26.785 147.68a4.501 4.501 0 0 1-3.3518 5.1948l-0.0647 0.0161-15.979-0.39257a4.5137 4.5137 0 0 1-5.2949-3.0274l-34.029-119.41a1.5001 1.5001 0 0 0-2.8882 0.13379l-22.59 125.55a4.4856 4.4856 0 0 1-4.3844 3.5239z" fill="#2f2e41"/>
<path d="m314.41 197.4c-3.9072 5.1152-0.93367 13.822 5.2862 15.479s13.13-4.4176 12.285-10.799c-1.3423 6.6948 4.3874 13.701 11.189 14.296s13.416-4.7342 14.904-11.398-1.8331-13.945-7.487-17.773-13.225-4.3255-19.622-1.9388a37.851 37.851 0 0 0-16.555 12.134z" fill="#2f2e41"/>
<path d="m344.02 175.56c-3.6381-7.635-7.3762-15.416-13.256-21.495s-14.386-10.266-22.722-8.8322-15.513 9.8459-13.667 18.099c0.93775 4.1924-2.652 8.3464-6.7899 9.5012s-8.5477 0.0749-12.638-1.2375c-4.0906-1.3124-8.2346-2.8795-12.527-2.6947-8.6062 0.37048-15.801 8.5166-16.104 17.125s5.5538 16.803 13.411 20.335 17.255 2.7404 25.005-1.0206 13.946-10.245 18.478-17.571c6.6956-10.825 23.521-13.495 33.239-5.2747a5.262 5.262 0 0 0 7.1166-0.57067c1.7187-2.0052 1.4696-5.3885 0.45471-6.3645z" fill="#2f2e41"/>
<path d="m527.55 132.65-8.1936-7.3915c-29.097-26.714-48.306-44.053-48.306-65.652 0-17.622 13.559-31.264 31.075-31.264a33.424 33.424 0 0 1 25.425 11.938 33.423 33.423 0 0 1 25.425-11.938c17.516 0 31.075 13.642 31.075 31.264 0 21.599-19.21 38.938-48.306 65.652z" fill="#f77205"/>
<path d="m392.66 183.49a3.8925 3.8925 0 0 1-2.6113-3.7051v-170.78a9.0103 9.0103 0 0 1 9-9h257a9.0103 9.0103 0 0 1 9 9v144a9.0103 9.0103 0 0 1-9 9h-242.44l-16.586 20.272a3.8918 3.8918 0 0 1-3.0234 1.4487 3.9863 3.9863 0 0 1-1.3442-0.23538zm6.3887-181.49a7.0079 7.0079 0 0 0-7 7v170.78a1.9342 1.9342 0 0 0 3.4312 1.2251l17.186-21.005h243.38a7.0079 7.0079 0 0 0 7-7v-144a7.0079 7.0079 0 0 0-7-7z" fill="#4f8f81"/>
<path d="m316.88 339.35-1.7366-4.0367c-6.0897-14.504-10.159-23.971-6.5696-31.788a12.236 12.236 0 0 1 16.119-6.2962q0.16255 0.0712 0.323 0.14715a13.31 13.31 0 0 1 7.2169 8.5459 13.31 13.31 0 0 1 11.185-0.0942 12.236 12.236 0 0 1 6.1985 16.157q-0.0722 0.16214-0.14911 0.32208c-3.59 7.8165-13.424 10.898-28.393 15.73z" fill="#f77205"/>
<path d="m323.57 319.52a10.056 10.056 0 0 0-14.357-5.6237l-17.974-13.502-4.3388 12.351 18.575 15.479a10.11 10.11 0 0 0 18.095-8.7049z" fill="#ffb8b8"/>
<path d="m297.8 323.78a4.18 4.18 0 0 1-2.236-0.64892l-7.7189-4.8784c-6.1074-3.8594-8.3068-12.05-5.1158-19.052l15.823-34.721a9.8399 9.8399 0 0 1 7.1042-5.7168 8.7328 8.7328 0 0 1 7.8224 2.4927 10.569 10.569 0 0 1 1.5796 12.488l-15.626 28.607 4.6776 4.3535a4.9796 4.9796 0 0 1 1.168 5.3569l-3.228 8.6172a4.7429 4.7429 0 0 1-2.9016 2.8799 4.2314 4.2314 0 0 1-1.3489 0.22167z" fill="#4f8f81"/>
<path d="m463 546h-314a1 1 0 0 1 0-2h314a1 1 0 0 1 0 2z" fill="#ccc"/>
</svg>
