<?xml version="1.0" encoding="UTF-8"?>
<svg data-name="Layer 1" version="1.1" viewBox="0 0 879.13 631.48" xmlns="http://www.w3.org/2000/svg">
<rect x=".27499" y=".36501" width="644.72" height="412.91" fill="#e6e6e6" data-name="Rectangle 338"/>
<rect x="18.711" y="52.154" width="607.85" height="336.69" fill="#fff" data-name="Rectangle 339"/>
<rect width="644.72" height="27.39" fill="#4f8f81" data-name="Rectangle 340"/>
<circle cx="20.355" cy="14.004" r="5.077" fill="#fff" data-name="Ellipse 513"/>
<circle cx="39.624" cy="14.004" r="5.077" fill="#fff" data-name="Ellipse 514"/>
<circle cx="58.893" cy="14.004" r="5.077" fill="#fff" data-name="Ellipse 515"/>
<rect x="93.5" y="79.848" width="118.89" height="128.98" fill="#e6e6e6" data-name="Rectangle 341"/>
<rect x="263.19" y="79.848" width="118.89" height="128.98" fill="#e6e6e6" data-name="Rectangle 342"/>
<rect x="432.89" y="79.848" width="118.89" height="128.98" fill="#e6e6e6" data-name="Rectangle 343"/>
<rect x="93.5" y="232.18" width="118.89" height="128.98" fill="#e6e6e6" data-name="Rectangle 344"/>
<rect x="263.19" y="232.18" width="118.89" height="128.98" fill="#e6e6e6" data-name="Rectangle 345"/>
<rect x="432.89" y="232.18" width="118.89" height="128.98" fill="#e6e6e6" data-name="Rectangle 346"/>
<path transform="translate(-160.44 -134.26)" d="m452.37 399.58 21.722-8.588 2.526 42.939s4.546 13.134 3.031 18.186c0 0 1.01 8.588-1.516 9.093s-9.6 1.516-10.1 1.01-0.505-2.021-0.505-2.021-5.052 3.536-5.557 7.577c0 0-21.217 6.567-21.722 0.505s10.608-11.114 10.608-11.114l8.588-13.134z" fill="#fff" data-name="Path 2643"/>
<path transform="translate(-160.44 -134.26)" d="m498.34 399.58 21.719-8.588 2.526 42.939s4.546 13.134 3.031 18.186c0 0 1.01 8.588-1.516 9.093s-9.6 1.516-10.1 1.01-0.505-2.021-0.505-2.021-5.052 3.536-5.557 7.577c0 0-21.217 6.567-21.722 0.505s10.608-11.114 10.608-11.114l8.588-13.134z" fill="#fff" data-name="Path 2644"/>
<path transform="translate(-160.44 -134.26)" d="m500.46 233.77s-4.625 12.924 0.734 18.752l-4.468 15.353s15.874 47.622 11.339 54.274c0 0-16.932 8.466-50.8-3.024l13.757-53.367-1.965-22.526 2.721-10.583 6.047-0.6s-3.628 13.606 3.024 15.723 13.141-15.383 13.141-15.383z" fill="#f77205" data-name="Path 2645"/>
<path transform="translate(-160.44 -134.26)" d="m286.86 317.19 5.837 2.388 27.858-36.613 8.755 42.98 5.837-1.061c3.744-37.055 6.8-74.85 3.051-92.726l-21.623-0.929-9.816 31.311-4.776 21.225z" fill="#fff" data-name="Path 2646"/>
<path transform="translate(-160.44 -134.26)" d="m641.12 231.87s-7.966 11.074-7.577 15.543 5.44 77.327 5.44 77.327l11.852 0.583-3.5-52.458 2.914-14.183 7.189 66.058 14.572 0.389-13.017-85.681-2.526-7.577z" fill="#fff" data-name="Path 2647"/>
<path transform="translate(-160.44 -134.26)" d="m686.14 410.28c-2.115-2.538-5.751-3.91-9.242-4.652 0.1-0.317-10.618-2.532-10.8-2.076l-4.041-3.219-12.417 6.447-6.977-4.75-3.241 1.15c0.132-0.572-10.061 1.194-10.061 1.194-1.947 0.07-4.434 0.192-7.218 0.406-9.749 0.75-10.5 26-10.5 26a39.85 39.85 0 0 1 14.113-2.955l2.635 30.2c13.553-1.162 27.767 0.19 42.5 3.5l6.909-23.74 16.089-6.257s-2.749-15.249-7.749-21.248z" fill="#f77205" data-name="Path 2648"/>
<path transform="translate(-160.44 -134.26)" d="M340.8785,395.89473c-1.743-2.091-4.738-3.222-7.615-3.833.086-.262-8.749-2.086-8.9-1.71l-3.33-2.652-10.229,5.312-5.749-3.913-2.67.948c.109-.471-8.29.983-8.29.983-1.6.058-3.654.158-5.947.335-8.033.618-8.651,21.421-8.651,21.421a32.837,32.837,0,0,1,11.629-2.435l2.171,60.914c11.167-.958,22.879.157,35.015,2.884l5.692-55.59,13.257-5.155S344.99749,400.83974,340.8785,395.89473Z" fill="#fff" data-name="Path 2649"/>
<path transform="translate(-160.44 -134.26)" d="m909.89 412.11h57v-30.5a28.5 28.5 0 1 0-57 0z" fill="#2f2e41" data-name="Path 2682"/>
<path transform="translate(-160.44 -134.26)" d="m884.44 751.45h-12.259l-5.833-47.292h18.094z" fill="#ffb6b6" data-name="Path 2683"/>
<path transform="translate(-160.44 -134.26)" d="m887.57 747.45h-24.145a15.387 15.387 0 0 0-15.386 15.385v0.5h39.531z" fill="#2f2e41" data-name="Path 2684"/>
<path transform="translate(-160.44 -134.26)" d="m1031 735.09-10.676 6.027-28.328-38.311 15.757-8.895z" fill="#ffb6b6" data-name="Path 2685"/>
<path transform="translate(-160.44 -134.26)" d="m1031.8 730.07-21.025 11.866a15.387 15.387 0 0 0-5.834 20.963l0.246 0.435 34.424-19.433z" fill="#2f2e41" data-name="Path 2686"/>
<path transform="translate(-160.44 -134.26)" d="m952.64 538.78 0.946 4.73s2.838 2.838 1.419 4.257-0.946 8.042-0.946 8.042c0.794 12.076 16.573 79.936 19.395 93.189 0 0 21.76 14.191 38.789 42.1s17.5 35.005 17.5 35.005l-18.918 8.043-47.3-57.238s-13.245-8.042-17.976-15.137-34.064-80.418-34.064-80.418l-16.56 76.633s0.946 27.909-3.311 45.885a192.52 192.52 0 0 0-4.73 34.532l-22.233-2.365s1.419-67.172 3.784-74.268c0 0-9.934-81.836 9.934-114.48l16.012-42.687 15.682-6.036z" fill="#2f2e41" data-name="Path 2687"/>
<path transform="translate(-160.44 -134.26)" d="m938.68 360.56c-29.847 0.51-29.842 44.907 0 45.412 29.845-0.50999 29.841-44.907 0-45.412z" fill="#ffb8b8" data-name="Path 2688"/>
<path transform="translate(-160.44 -134.26)" d="m915.71 382.09h5.073l1.381-3.454-0.691 3.454h27.745l-0.9-7.227 6.744 7.227h6.727v-3.916a23.038 23.038 0 1 0-46.076-0.03259v0.03259z" fill="#2f2e41" data-name="Path 2689"/>
<path transform="translate(-160.44 -134.26)" d="m907.9 419.23 56.4 0.457-11.916 120.92s-65.959-3.481-66-23.614l6.179-17.891z" fill="#f77205" data-name="Path 2690"/>
<path transform="translate(-160.44 -134.26)" d="m966.73 552.3a9.377 9.377 0 0 1 2.7-14.122l-2.451-21.287 12.573-4.645 3.039 30.111a9.428 9.428 0 0 1-15.861 9.943z" fill="#ffb6b6" data-name="Path 2693"/>
<path transform="translate(-160.44 -134.26)" d="m956.89 430.11 7.421-10.373s5.079-1.127 11.079 5.873 9.5 94.5 9.5 94.5l-22 5-13-62z" fill="#f77205" data-name="Path 2694"/>
<polygon points="672.14 390.74 673.77 468.48 724.1 495.07 815.74 478.7 818 397.9 759.9 377.44" fill="#fff"/>
<path transform="translate(-160.44 -134.26)" d="m884.4 630.17-50.987-26.945-1.6614-78.916 88.658-13.433 0.18894 0.06631 58.651 20.652-2.2848 82.046zm-49.4-27.924 49.662 26.245 90.732-16.202 2.2157-79.566-57.357-20.196-86.866 13.162z" fill="#cacaca"/>
<polygon points="722.97 411.82 722.78 411.74 671.84 391.48 672.43 389.99 723.17 410.17 817.88 397.1 818.1 398.7" fill="#cacaca"/>
<rect transform="translate(-167.52 -123.46) rotate(-.69695)" x="883.22" y="545.25" width="1.6074" height="84.086" fill="#cacaca"/>
<polygon points="716.54 407.79 698.17 400.35 786.57 386.26 804.93 393.71" fill="#cacaca"/>
<rect transform="translate(-158.48 974.46) rotate(-66.706)" x="842.42" y="541.28" width="1.6073" height="23.186" fill="#cacaca"/>
<rect transform="translate(-177.01 999.35) rotate(-66.706)" x="852.06" y="567.8" width="1.6073" height="23.186" fill="#4f8f81"/>
<polygon points="392.14 498.74 393.77 576.48 444.1 603.07 535.74 586.7 538 505.9 479.9 485.44" fill="#fff"/>
<path transform="translate(-160.44 -134.26)" d="m604.4 738.17-50.987-26.945-1.6614-78.916 88.658-13.433 0.18894 0.06631 58.651 20.652-2.2848 82.046zm-49.4-27.924 49.662 26.245 90.732-16.202 2.2157-79.566-57.357-20.196-86.866 13.162z" fill="#cacaca"/>
<polygon points="442.97 519.82 442.78 519.74 391.84 499.48 392.43 497.99 443.17 518.17 537.88 505.1 538.1 506.7" fill="#cacaca"/>
<rect transform="translate(-168.85 -126.86) rotate(-.69695)" x="603.22" y="653.25" width="1.6074" height="84.086" fill="#cacaca"/>
<polygon points="432.09 513.96 418.17 508.35 506.57 494.26 520.48 499.88" fill="#cacaca"/>
<rect transform="translate(-426.95 782.58) rotate(-66.706)" x="562.42" y="649.28" width="1.6073" height="23.186" fill="#cacaca"/>
<rect transform="translate(-445.47 807.47) rotate(-66.706)" x="572.06" y="675.8" width="1.6073" height="23.186" fill="#4f8f81"/>
<polygon points="479.56 509.4 481.46 599.64 539.88 630.51 646.27 611.51 648.88 517.71 581.44 493.96" fill="#4f8f81"/>
<path transform="translate(-160.44 -134.26)" d="m700.17 765.74-59.188-31.278-1.9286-91.608 102.92-15.594 0.21933 0.077 68.085 23.974-2.6522 95.242zm-57.346-32.415 57.65 30.466 105.33-18.808 2.5721-92.364-66.582-23.445-100.84 15.278z" fill="#3f3d56"/>
<polygon points="538.58 533.86 538.35 533.77 479.22 510.26 479.91 508.53 538.81 531.95 648.76 516.78 649.01 518.63" fill="#3f3d56"/>
<rect transform="translate(-169.09 -125.69) rotate(-.69695)" x="698.79" y="667.16" width="1.8659" height="97.61" fill="#3f3d56"/>
<polygon points="526.89 527.11 509.79 520.55 612.4 504.2 629.5 510.76" fill="#3f3d56"/>
<rect transform="translate(-386.96 873.6) rotate(-66.706)" x="651.43" y="662.55" width="1.8658" height="26.916" fill="#3f3d56"/>
<rect transform="translate(-408.47 902.5) rotate(-66.706)" x="662.62" y="693.34" width="1.8658" height="26.916" fill="#fff"/>
<path transform="translate(-160.44 -134.26)" d="m861.11 537.85a9.377 9.377 0 0 0 3.673-13.9l11.422-18.13-9.324-9.628-15.771 25.829a9.428 9.428 0 0 0 10 15.83z" fill="#ffb6b6" data-name="Path 2691"/>
<path transform="translate(-160.44 -134.26)" d="m916.57 424-8.183-5.392s-6.315 1.416-13.031 14.334-33.8 70.672-33.8 70.672l11.133 11.3 29.7-45.309z" fill="#f77205" data-name="Path 2692"/>
</svg>